<?xml version="1.0" encoding="utf-8"?>
<!-- Generator: Adobe Illustrator 16.0.0, SVG Export Plug-In . SVG Version: 6.00 Build 0)  -->
<!DOCTYPE svg PUBLIC "-//W3C//DTD SVG 1.1//EN" "http://www.w3.org/Graphics/SVG/1.1/DTD/svg11.dtd">
<svg version="1.1" id="objects" xmlns="http://www.w3.org/2000/svg" xmlns:xlink="http://www.w3.org/1999/xlink" x="0px" y="0px"
	 width="36.555px" height="36.556px" viewBox="0 0 36.555 36.556" style="enable-background:new 0 0 36.555 36.556;"
	 xml:space="preserve">
<style type="text/css">
<![CDATA[
	.st0{fill:#F1F2F2;}
	.st1{fill:#339DC3;}
]]>
</style>
<circle class="st1" cx="18.277" cy="18.277" r="18.277"/>
<g>
	<path class="st0" d="M29.559,11.28c-0.83,0.368-1.723,0.617-2.659,0.729c0.956-0.573,1.689-1.479,2.036-2.561
		c-0.895,0.53-1.886,0.916-2.939,1.123c-0.845-0.899-2.048-1.462-3.38-1.462c-2.556,0-4.629,2.073-4.629,4.629
		c0,0.363,0.041,0.717,0.121,1.056c-3.848-0.193-7.258-2.036-9.541-4.837c-0.398,0.684-0.627,1.479-0.627,2.327
		c0,1.605,0.817,3.022,2.059,3.853c-0.758-0.023-1.473-0.231-2.096-0.579c-0.001,0.02-0.001,0.039-0.001,0.059
		c0,2.243,1.597,4.113,3.714,4.538c-0.389,0.106-0.798,0.163-1.22,0.163c-0.299,0-0.589-0.029-0.871-0.083
		c0.589,1.839,2.298,3.177,4.324,3.215c-1.585,1.241-3.58,1.981-5.749,1.981c-0.373,0-0.742-0.021-1.104-0.064
		c2.047,1.313,4.48,2.08,7.095,2.08c8.515,0,13.171-7.054,13.171-13.171c0-0.201-0.005-0.4-0.014-0.599
		C28.153,13.023,28.938,12.209,29.559,11.28L29.559,11.28z M29.559,11.28"/>
</g>
</svg>
