<?xml version="1.0" encoding="utf-8"?>
<!-- Generator: Adobe Illustrator 16.0.0, SVG Export Plug-In . SVG Version: 6.00 Build 0)  -->
<!DOCTYPE svg PUBLIC "-//W3C//DTD SVG 1.1//EN" "http://www.w3.org/Graphics/SVG/1.1/DTD/svg11.dtd">
<svg version="1.1" id="objects" xmlns="http://www.w3.org/2000/svg" xmlns:xlink="http://www.w3.org/1999/xlink" x="0px" y="0px"
	 width="36.555px" height="36.556px" viewBox="0 0 36.555 36.556" style="enable-background:new 0 0 36.555 36.556;"
	 xml:space="preserve">
<style type="text/css">
<![CDATA[
	.st0{fill-rule:evenodd;clip-rule:evenodd;fill:#F1F2F2;}
	.st1{fill:#30BF39;}
]]>
</style>
<g>
	<circle class="st1" cx="18.277" cy="18.278" r="18.277"/>
	<g>
		<path class="st0" d="M23.804,19.946c-0.25-0.137-1.479-0.799-1.708-0.893s-0.398-0.143-0.578,0.105
			c-0.179,0.248-0.688,0.803-0.843,0.967c-0.155,0.166-0.304,0.182-0.555,0.043c-0.249-0.137-1.06-0.436-1.999-1.34
			c-0.731-0.701-1.211-1.555-1.35-1.814c-0.14-0.26-0.001-0.393,0.131-0.516c0.119-0.109,0.267-0.287,0.399-0.432
			c0.132-0.143,0.179-0.248,0.27-0.414c0.092-0.166,0.055-0.316-0.005-0.447c-0.059-0.129-0.521-1.4-0.714-1.918
			c-0.192-0.518-0.408-0.441-0.557-0.447c-0.148-0.004-0.316-0.033-0.486-0.039s-0.448,0.047-0.69,0.293
			c-0.243,0.246-0.925,0.838-0.971,2.09c-0.048,1.252,0.819,2.496,0.94,2.67c0.121,0.176,1.654,2.891,4.203,4.006
			c2.55,1.117,2.563,0.777,3.031,0.752s1.528-0.561,1.764-1.146c0.234-0.586,0.253-1.096,0.193-1.203
			C24.221,20.153,24.053,20.083,23.804,19.946L23.804,19.946z M19.128,25.981c-1.686,0-3.256-0.506-4.566-1.373l-3.189,1.021
			l1.036-3.082c-0.993-1.369-1.58-3.049-1.58-4.867c0-4.578,3.724-8.301,8.3-8.301c4.578,0,8.301,3.723,8.301,8.301
			S23.706,25.981,19.128,25.981L19.128,25.981z M19.128,7.71c-5.506,0-9.971,4.465-9.971,9.971c0,1.885,0.523,3.646,1.431,5.148
			l-1.8,5.35l5.521-1.766c1.429,0.789,3.071,1.24,4.819,1.24c5.508,0,9.973-4.465,9.973-9.973
			C29.101,12.175,24.636,7.71,19.128,7.71L19.128,7.71z"/>
	</g>
</g>
</svg>
